<svg width="24" height="24" viewBox="0 0 24 24" fill="none" xmlns="http://www.w3.org/2000/svg">
<path d="M21 5C21 5.53043 20.7893 6.03914 20.4142 6.41421C20.0391 6.78929 19.5304 7 19 7C18.4696 7 17.9609 6.78929 17.5858 6.41421C17.2107 6.03914 17 5.53043 17 5C17 4.46957 17.2107 3.96086 17.5858 3.58579C17.9609 3.21071 18.4696 3 19 3C19.5304 3 20.0391 3.21071 20.4142 3.58579C20.7893 3.96086 21 4.46957 21 5Z" fill="#FF432B" stroke="#FF432B" stroke-width="1.5"/>
<path d="M14.6383 2.55558L15.2926 2.92222L15.6959 2.2025L14.9411 1.86942L14.6383 2.55558ZM5.25006 9.71H4.50006L4.50006 9.71107L5.25006 9.71ZM4.55806 12.085L5.1891 12.4903L5.19011 12.4888L4.55806 12.085ZM3.45006 13.81L2.81902 13.4047L2.81891 13.4049L3.45006 13.81ZM4.97006 18.024L5.17442 17.3024L5.17437 17.3024L4.97006 18.024ZM19.0301 18.024L18.8258 17.3024L18.8257 17.3024L19.0301 18.024ZM20.5501 13.811L21.1811 13.4057L21.1811 13.4057L20.5501 13.811ZM19.4421 12.086L18.8102 12.49L18.811 12.4913L19.4421 12.086ZM18.7579 9.99414L19.5064 9.94669L19.4639 9.27747L18.7942 9.24502L18.7579 9.99414ZM15.4645 8.53553L14.9342 9.06586H14.9342L15.4645 8.53553ZM14.9411 1.86942C14.0375 1.47067 13.0429 1.25 12.0001 1.25V2.75C12.8292 2.75 13.618 2.92511 14.3355 3.24174L14.9411 1.86942ZM12.0001 1.25C7.83403 1.25 4.50006 4.74808 4.50006 9.005H6.00006C6.00006 5.52392 8.71409 2.75 12.0001 2.75V1.25ZM4.50006 9.005V9.71H6.00006V9.005H4.50006ZM4.50006 9.71107C4.50106 10.4092 4.30184 11.0929 3.92602 11.6812L5.19011 12.4888C5.72037 11.6587 6.00147 10.6939 6.00006 9.70893L4.50006 9.71107ZM3.92702 11.6797L2.81902 13.4047L4.0811 14.2153L5.1891 12.4903L3.92702 11.6797ZM2.81891 13.4049C1.55053 15.3808 2.4967 18.1032 4.76576 18.7456L5.17437 17.3024C3.92542 16.9488 3.32759 15.3892 4.08122 14.2151L2.81891 13.4049ZM4.7657 18.7456C9.4956 20.0851 14.5045 20.0851 19.2344 18.7456L18.8257 17.3024C14.363 18.5662 9.6371 18.5662 5.17442 17.3024L4.7657 18.7456ZM19.2344 18.7456C21.5032 18.1033 22.4498 15.3809 21.1811 13.4057L19.919 14.2163C20.6723 15.3891 20.0749 16.9487 18.8258 17.3024L19.2344 18.7456ZM21.1811 13.4057L20.0731 11.6807L18.811 12.4913L19.919 14.2163L21.1811 13.4057ZM20.0739 11.682C19.7401 11.1599 19.5454 10.5626 19.5064 9.94669L18.0094 10.0416C18.0645 10.9106 18.3392 11.7534 18.8102 12.49L20.0739 11.682ZM18.7942 9.24502C17.742 9.19403 16.7432 8.75357 15.9949 8.0052L14.9342 9.06586C15.9467 10.0784 17.2979 10.6743 18.7216 10.7433L18.7942 9.24502ZM15.9949 8.0052C15.1978 7.20817 14.7501 6.12717 14.7501 5H13.2501C13.2501 6.52499 13.8559 7.98753 14.9342 9.06586L15.9949 8.0052ZM14.7501 5C14.7501 4.26596 14.9399 3.5515 15.2926 2.92222L13.984 2.18894C13.507 3.04017 13.2501 4.00684 13.2501 5H14.7501Z" fill="#949BAD"/>
<path d="M7.5 19C8.155 20.748 9.922 22 12 22C14.078 22 15.845 20.748 16.5 19" stroke="#949BAD" stroke-width="1.5" stroke-linecap="round"/>
</svg>